<svg width="33" height="32" viewBox="0 0 33 32" fill="none" xmlns="http://www.w3.org/2000/svg">
<path d="M28.46 1.3335H24.54C23.38 1.3335 22.5267 1.8135 22.14 2.66683C21.9267 3.0535 21.8333 3.50683 21.8333 4.04016V7.96016C21.8333 9.6535 22.8467 10.6668 24.54 10.6668H28.46C28.9933 10.6668 29.4467 10.5735 29.8333 10.3602C30.6867 9.9735 31.1667 9.12016 31.1667 7.96016V4.04016C31.1667 2.34683 30.1533 1.3335 28.46 1.3335ZM29.7133 6.5735C29.58 6.70683 29.38 6.80016 29.1667 6.8135H27.2867V7.4935L27.3 8.66683C27.2867 8.8935 27.2067 9.08016 27.0467 9.24016C26.9133 9.3735 26.7133 9.46683 26.5 9.46683C26.06 9.46683 25.7 9.10683 25.7 8.66683V6.80016L23.8333 6.8135C23.3933 6.8135 23.0333 6.44016 23.0333 6.00016C23.0333 5.56016 23.3933 5.20016 23.8333 5.20016L25.0067 5.2135H25.7V3.34683C25.7 2.90683 26.06 2.5335 26.5 2.5335C26.94 2.5335 27.3 2.90683 27.3 3.34683L27.2867 4.2935V5.20016H29.1667C29.6067 5.20016 29.9667 5.56016 29.9667 6.00016C29.9533 6.22683 29.86 6.4135 29.7133 6.5735Z" fill="#222222" fill-opacity="0.7"/>
<path d="M12.5 13.8398C14.2526 13.8398 15.6733 12.4191 15.6733 10.6665C15.6733 8.91391 14.2526 7.49316 12.5 7.49316C10.7474 7.49316 9.32666 8.91391 9.32666 10.6665C9.32666 12.4191 10.7474 13.8398 12.5 13.8398Z" fill="#222222" fill-opacity="0.7"/>
<path d="M28.46 10.6665H27.8333V16.8132L27.66 16.6665C26.62 15.7732 24.94 15.7732 23.9 16.6665L18.3533 21.4265C17.3133 22.3198 15.6333 22.3198 14.5933 21.4265L14.14 21.0532C13.1933 20.2265 11.6867 20.1465 10.62 20.8665L5.63334 24.2132C5.34 23.4665 5.16667 22.5998 5.16667 21.5865V10.4132C5.16667 6.65317 7.15334 4.6665 10.9133 4.6665H21.8333V4.03984C21.8333 3.5065 21.9267 3.05317 22.14 2.6665H10.9133C6.06 2.6665 3.16667 5.55984 3.16667 10.4132V21.5865C3.16667 23.0398 3.42001 24.3065 3.91334 25.3732C5.06001 27.9065 7.51334 29.3332 10.9133 29.3332H22.0867C26.94 29.3332 29.8333 26.4398 29.8333 21.5865V10.3598C29.4467 10.5732 28.9933 10.6665 28.46 10.6665Z" fill="#222222" fill-opacity="0.7"/>
</svg>
