<svg width="48" height="48" viewBox="0 0 48 48" fill="none" xmlns="http://www.w3.org/2000/svg">
<rect width="48" height="48" rx="24" fill="white"/>
<path d="M24 14C18.49 14 14 18.49 14 24C14 29.51 18.49 34 24 34C29.51 34 34 29.51 34 24C34 18.49 29.51 14 24 14ZM25.79 27C26.08 27.29 26.08 27.77 25.79 28.06C25.64 28.21 25.45 28.28 25.26 28.28C25.07 28.28 24.88 28.21 24.73 28.06L21.2 24.53C20.91 24.24 20.91 23.76 21.2 23.47L24.73 19.94C25.02 19.65 25.5 19.65 25.79 19.94C26.08 20.23 26.08 20.71 25.79 21L22.79 24L25.79 27Z" fill="#2771FF"/>
</svg>
