<svg width="18" height="19" viewBox="0 0 18 19" fill="none" xmlns="http://www.w3.org/2000/svg">
<path d="M14.505 11.3675L13.755 10.1225C13.5975 9.845 13.455 9.32 13.455 9.0125V7.115C13.455 5.3525 12.42 3.83 10.9275 3.1175C10.5375 2.4275 9.81746 2 8.99246 2C8.17496 2 7.43996 2.4425 7.04996 3.14C5.58746 3.8675 4.57496 5.375 4.57496 7.115V9.0125C4.57496 9.32 4.43246 9.845 4.27496 10.115L3.51746 11.3675C3.21746 11.87 3.14996 12.425 3.33746 12.935C3.51746 13.4375 3.94496 13.8275 4.49996 14.015C5.95496 14.51 7.48496 14.75 9.01496 14.75C10.545 14.75 12.075 14.51 13.53 14.0225C14.055 13.85 14.46 13.4525 14.655 12.935C14.85 12.4175 14.7975 11.8475 14.505 11.3675Z" fill="#2771FF"/>
<path d="M11.1225 15.5075C10.8075 16.3775 9.97501 17 9.00001 17C8.40751 17 7.82251 16.76 7.41001 16.3325C7.17001 16.1075 6.99001 15.8075 6.88501 15.5C6.98251 15.515 7.08001 15.5225 7.18501 15.5375C7.35751 15.56 7.53751 15.5825 7.71751 15.5975C8.14501 15.635 8.58001 15.6575 9.01501 15.6575C9.44251 15.6575 9.87001 15.635 10.29 15.5975C10.4475 15.5825 10.605 15.575 10.755 15.5525C10.875 15.5375 10.995 15.5225 11.1225 15.5075Z" fill="#2771FF"/>
</svg>
