<svg width="32" height="32" viewBox="0 0 32 32" fill="none" xmlns="http://www.w3.org/2000/svg">
<path d="M26.6667 8.99984C28.6917 8.99984 30.3333 7.35821 30.3333 5.33317C30.3333 3.30813 28.6917 1.6665 26.6667 1.6665C24.6416 1.6665 23 3.30813 23 5.33317C23 7.35821 24.6416 8.99984 26.6667 8.99984Z" fill="white"/>
<path d="M25.3867 10.8665C23.2934 10.4132 21.5868 8.7065 21.1334 6.61317C20.9601 5.79984 20.9467 5.01317 21.0934 4.2665C21.2667 3.43984 20.6534 2.6665 19.8001 2.6665H9.33342C5.65341 2.6665 2.66675 5.65317 2.66675 9.33317V18.5998C2.66675 22.2798 5.65341 25.2665 9.33342 25.2665H11.3334C11.7067 25.2665 12.1867 25.5065 12.4001 25.7998L14.4001 28.4532C15.2801 29.6265 16.7201 29.6265 17.6001 28.4532L19.6001 25.7998C19.8534 25.4665 20.2401 25.2665 20.6667 25.2665H22.6801C26.3601 25.2665 29.3334 22.2932 29.3334 18.6132V12.1998C29.3334 11.3598 28.5601 10.7465 27.7334 10.9065C26.9867 11.0398 26.2001 11.0398 25.3867 10.8665ZM10.6667 15.9998C9.92008 15.9998 9.33342 15.3998 9.33342 14.6665C9.33342 13.9332 9.92008 13.3332 10.6667 13.3332C11.4001 13.3332 12.0001 13.9332 12.0001 14.6665C12.0001 15.3998 11.4134 15.9998 10.6667 15.9998ZM16.0001 15.9998C15.2534 15.9998 14.6667 15.3998 14.6667 14.6665C14.6667 13.9332 15.2534 13.3332 16.0001 13.3332C16.7334 13.3332 17.3334 13.9332 17.3334 14.6665C17.3334 15.3998 16.7467 15.9998 16.0001 15.9998ZM21.3334 15.9998C20.5867 15.9998 20.0001 15.3998 20.0001 14.6665C20.0001 13.9332 20.5867 13.3332 21.3334 13.3332C22.0667 13.3332 22.6667 13.9332 22.6667 14.6665C22.6667 15.3998 22.0801 15.9998 21.3334 15.9998Z" fill="white"/>
</svg>
