<svg width="12" height="15" viewBox="0 0 12 15" fill="none" xmlns="http://www.w3.org/2000/svg">
<path d="M11.7467 4.86364C11.0467 1.78364 8.36006 0.396973 6.00006 0.396973C6.00006 0.396973 6.00006 0.396973 5.9934 0.396973C3.64006 0.396973 0.94673 1.77697 0.24673 4.85697C-0.53327 8.29697 1.5734 11.2103 3.48006 13.0436C4.18673 13.7236 5.0934 14.0636 6.00006 14.0636C6.90673 14.0636 7.8134 13.7236 8.5134 13.0436C10.4201 11.2103 12.5267 8.30364 11.7467 4.86364ZM6.00006 8.20364C4.84006 8.20364 3.90006 7.26364 3.90006 6.10364C3.90006 4.94364 4.84006 4.00364 6.00006 4.00364C7.16006 4.00364 8.10006 4.94364 8.10006 6.10364C8.10006 7.26364 7.16006 8.20364 6.00006 8.20364Z" fill="#222222"/>
</svg>
