<svg width="20" height="20" viewBox="0 0 20 20" fill="none" xmlns="http://www.w3.org/2000/svg">
<circle cx="10" cy="10" r="10" fill="#222222" fill-opacity="0.6"/>
<path d="M13.1812 12.5262C13.0974 12.5262 13.0188 12.5 12.9454 12.4476C12.7725 12.3166 12.7358 12.0704 12.8668 11.8975C13.527 11.0172 13.6685 9.8488 13.2441 8.83756C13.1602 8.63845 13.2546 8.40791 13.4537 8.32408C13.6528 8.24024 13.8833 8.33456 13.9671 8.53366C14.5016 9.80164 14.3182 11.274 13.4956 12.3743C13.417 12.4738 13.3017 12.5262 13.1812 12.5262Z" fill="white"/>
<path d="M14.1402 13.8363C14.0563 13.8363 13.9778 13.8101 13.9044 13.7577C13.7315 13.6267 13.6948 13.3805 13.8258 13.2075C14.9471 11.7143 15.1933 9.71275 14.4703 7.98892C14.3864 7.78982 14.4808 7.55928 14.6799 7.47545C14.879 7.39161 15.1095 7.48592 15.1933 7.68503C16.0264 9.66559 15.7435 11.9605 14.4546 13.6791C14.3812 13.7839 14.2607 13.8363 14.1402 13.8363Z" fill="white"/>
<path d="M11.1065 10.5403C11.4366 10.2102 12.0024 10.446 12.0024 10.9123V12.4475C12.0024 13.3487 11.6776 14.0246 11.096 14.3495C10.8602 14.4804 10.5982 14.5433 10.3258 14.5433C9.90661 14.5433 9.456 14.4019 8.99492 14.1137L8.65958 13.9041C8.37665 13.7259 8.32949 13.3277 8.56527 13.092L11.1065 10.5403Z" fill="white"/>
<path d="M15.1567 4.91818C14.9995 4.761 14.7427 4.761 14.5855 4.91818L11.9919 7.51178C11.9605 6.67344 11.6461 6.04469 11.0907 5.73556C10.5039 5.4107 9.75464 5.49454 8.98966 5.97134L7.46495 6.92494C7.36015 6.98782 7.23964 7.0245 7.11913 7.0245H6.63185H6.36987C5.10189 7.0245 4.40503 7.72136 4.40503 8.98934V11.0852C4.40503 12.3532 5.10189 13.05 6.36987 13.05H6.45371L4.91327 14.5905C4.75608 14.7476 4.75608 15.0044 4.91327 15.1616C4.9971 15.2349 5.09665 15.2768 5.20145 15.2768C5.30624 15.2768 5.40579 15.2349 5.48438 15.1563L15.1567 5.48406C15.3191 5.32687 15.3191 5.07537 15.1567 4.91818Z" fill="white"/>
</svg>
