<svg width="25" height="25" viewBox="0 0 25 25" fill="none" xmlns="http://www.w3.org/2000/svg">
<circle cx="12.5" cy="12.5" r="12.5" fill="#222222" fill-opacity="0.6"/>
<path d="M16.4765 15.6577C16.3717 15.6577 16.2735 15.6249 16.1818 15.5594C15.9656 15.3957 15.9198 15.0879 16.0835 14.8717C16.9088 13.7714 17.0856 12.3109 16.5551 11.0468C16.4503 10.7979 16.5682 10.5098 16.8171 10.405C17.066 10.3002 17.3541 10.4181 17.4589 10.667C18.127 12.2519 17.8977 14.0923 16.8695 15.4677C16.7712 15.5922 16.6271 15.6577 16.4765 15.6577Z" fill="white"/>
<path d="M17.6752 17.295C17.5704 17.295 17.4722 17.2623 17.3805 17.1968C17.1644 17.033 17.1185 16.7252 17.2823 16.5091C18.6838 14.6425 18.9917 12.1406 18.0878 9.98579C17.9831 9.73691 18.1009 9.44873 18.3498 9.34394C18.5987 9.23915 18.8869 9.35704 18.9917 9.60592C20.033 12.0816 19.6794 14.9503 18.0682 17.0985C17.9765 17.2295 17.8259 17.295 17.6752 17.295Z" fill="white"/>
<path d="M13.883 13.1755C14.2956 12.7629 15.003 13.0576 15.003 13.6405V15.5595C15.003 16.686 14.5969 17.5309 13.8699 17.9369C13.5752 18.1007 13.2477 18.1793 12.9072 18.1793C12.3832 18.1793 11.8199 18.0024 11.2436 17.6422L10.8244 17.3802C10.4707 17.1576 10.4118 16.6598 10.7065 16.3651L13.883 13.1755Z" fill="white"/>
<path d="M18.9456 6.14785C18.7492 5.95137 18.4282 5.95137 18.2317 6.14785L14.9897 9.38984C14.9505 8.34193 14.5575 7.55599 13.8632 7.16957C13.1297 6.7635 12.1931 6.86829 11.2369 7.4643L9.331 8.6563C9.20001 8.7349 9.04937 8.78074 8.89873 8.78074H8.28963H7.96216C6.37718 8.78074 5.5061 9.65182 5.5061 11.2368V13.8566C5.5061 15.4416 6.37718 16.3126 7.96216 16.3126H8.06695L6.1414 18.2382C5.94492 18.4347 5.94492 18.7556 6.1414 18.9521C6.24619 19.0438 6.37063 19.0962 6.50162 19.0962C6.63261 19.0962 6.75705 19.0438 6.8553 18.9455L18.9456 6.8552C19.1487 6.65871 19.1487 6.34434 18.9456 6.14785Z" fill="white"/>
</svg>
