<svg width="32" height="32" viewBox="0 0 32 32" fill="none" xmlns="http://www.w3.org/2000/svg">
<g opacity="0.9">
<path d="M10.412 3.18016H10.4134H21.5868C23.914 3.18016 25.7114 3.87192 26.9265 5.08705C28.1417 6.30217 28.8334 8.0996 28.8334 10.4268V21.5868C28.8334 23.9141 28.1417 25.7113 26.9251 26.9264C25.7084 28.1415 23.9077 28.8335 21.5734 28.8335H10.4134C8.08618 28.8335 6.28876 28.1417 5.07363 26.9266C3.85851 25.7115 3.16675 23.9141 3.16675 21.5868L3.16675 10.4135C3.16675 8.08618 3.85855 6.28894 5.07341 5.0756C6.28817 3.86237 8.08513 3.17377 10.412 3.18016ZM16.0001 24.9135C17.2362 24.9135 18.2467 23.903 18.2467 22.6668C18.2467 21.4307 17.2362 20.4202 16.0001 20.4202C14.7639 20.4202 13.7534 21.4307 13.7534 22.6668C13.7534 23.903 14.7639 24.9135 16.0001 24.9135ZM16.0001 18.2468C17.2362 18.2468 18.2467 17.2363 18.2467 16.0002C18.2467 14.764 17.2362 13.7535 16.0001 13.7535C14.7639 13.7535 13.7534 14.764 13.7534 16.0002C13.7534 17.2363 14.7639 18.2468 16.0001 18.2468ZM16.0001 11.5802C17.2362 11.5802 18.2467 10.5696 18.2467 9.3335C18.2467 8.09735 17.2362 7.08683 16.0001 7.08683C14.7639 7.08683 13.7534 8.09735 13.7534 9.3335C13.7534 10.5696 14.7639 11.5802 16.0001 11.5802Z" stroke="white"/>
</g>
</svg>
