<svg width="100" height="100" viewBox="0 0 100 100" fill="none" xmlns="http://www.w3.org/2000/svg">
<path d="M49.8749 8.3335C26.8749 8.3335 8.20825 27.0002 8.20825 50.0002C8.20825 73.0002 26.8749 91.6668 49.8749 91.6668C72.8749 91.6668 91.5416 73.0002 91.5416 50.0002C91.5416 27.0002 72.9166 8.3335 49.8749 8.3335ZM44.6666 62.6252C44.6666 64.6252 43.8333 65.4168 41.7083 65.4168H36.2916C34.1666 65.4168 33.3333 64.6252 33.3333 62.6252V37.3752C33.3333 35.3752 34.1666 34.5835 36.2916 34.5835H41.6666C43.7916 34.5835 44.6249 35.3752 44.6249 37.3752V62.6252H44.6666ZM66.6666 62.6252C66.6666 64.6252 65.8332 65.4168 63.7082 65.4168H58.3332C56.2082 65.4168 55.3749 64.6252 55.3749 62.6252V37.3752C55.3749 35.3752 56.2082 34.5835 58.3332 34.5835H63.7082C65.8332 34.5835 66.6666 35.3752 66.6666 37.3752V62.6252Z" fill="#222222" fill-opacity="0.6"/>
</svg>
