<svg width="24" height="24" viewBox="0 0 24 24" fill="none" xmlns="http://www.w3.org/2000/svg">
<rect width="24" height="24" rx="12" fill="#F4F4F4"/>
<path d="M16.6267 7.61329L13.1801 5.61996C12.5201 5.23996 11.4867 5.23996 10.8267 5.61996L7.34672 7.62663C5.96672 8.55996 5.88672 8.69996 5.88672 10.1866V13.8066C5.88672 15.2933 5.96672 15.44 7.37339 16.3866L10.8201 18.38C11.1534 18.5733 11.5801 18.6666 12.0001 18.6666C12.4201 18.6666 12.8467 18.5733 13.1734 18.38L16.6534 16.3733C18.0334 15.44 18.1134 15.3 18.1134 13.8133V10.1866C18.1134 8.69996 18.0334 8.55996 16.6267 7.61329ZM12.0001 14.1666C10.8067 14.1666 9.83339 13.1933 9.83339 12C9.83339 10.8066 10.8067 9.83329 12.0001 9.83329C13.1934 9.83329 14.1667 10.8066 14.1667 12C14.1667 13.1933 13.1934 14.1666 12.0001 14.1666Z" fill="#AAAAAA"/>
</svg>
