<svg width="32" height="32" viewBox="0 0 32 32" fill="none" xmlns="http://www.w3.org/2000/svg">
<path d="M8.21327 27.9466L7.47993 25.7732C7.27993 25.1732 6.81327 24.6932 6.19993 24.4932L4.0266 23.7599C2.1466 23.1332 2.1866 20.4932 4.0666 19.9066L11.9999 17.4399C13.5733 16.9599 15.0399 18.4132 14.5466 19.9732L12.0799 27.9199C11.4933 29.7866 8.83993 29.8132 8.21327 27.9466Z" fill="white"/>
<path d="M16.6665 27.9999C16.0932 27.9999 15.5199 27.9599 14.9599 27.8932C14.5599 27.8399 14.3199 27.4265 14.4399 27.0399L16.4532 20.5732C16.8932 19.1332 16.5199 17.5999 15.4665 16.5332C14.3999 15.4665 12.8399 15.0799 11.3999 15.5332L4.95988 17.5332C4.57321 17.6532 4.15988 17.3999 4.10655 16.9999C4.03988 16.4399 3.99988 15.8932 3.99988 15.3332C3.99988 8.21321 9.85322 2.47988 17.0265 2.66654C23.6399 2.85321 29.1465 8.35987 29.3332 14.9732C29.5199 22.1465 23.7865 27.9999 16.6665 27.9999Z" fill="white"/>
</svg>
