<svg width="18" height="19" viewBox="0 0 18 19" fill="none" xmlns="http://www.w3.org/2000/svg">
<path d="M13.9051 3.58988L9.7801 2.04488C9.3526 1.88738 8.6551 1.88738 8.2276 2.04488L4.1026 3.58988C3.3076 3.88988 2.6626 4.81988 2.6626 5.66738V11.7424C2.6626 12.3499 3.0601 13.1524 3.5476 13.5124L7.6726 16.5949C8.4001 17.1424 9.5926 17.1424 10.3201 16.5949L14.4451 13.5124C14.9326 13.1449 15.3301 12.3499 15.3301 11.7424V5.66738C15.3376 4.81988 14.6926 3.88988 13.9051 3.58988ZM11.6101 7.78988L8.3851 11.0149C8.2726 11.1274 8.1301 11.1799 7.9876 11.1799C7.8451 11.1799 7.7026 11.1274 7.5901 11.0149L6.3901 9.79988C6.1726 9.58238 6.1726 9.22238 6.3901 9.00488C6.6076 8.78738 6.9676 8.78738 7.1851 9.00488L7.9951 9.81488L10.8226 6.98738C11.0401 6.76988 11.4001 6.76988 11.6176 6.98738C11.8351 7.20488 11.8351 7.57238 11.6101 7.78988Z" fill="#2771FF"/>
</svg>
