<svg width="20" height="20" viewBox="0 0 20 20" fill="none" xmlns="http://www.w3.org/2000/svg">
<circle cx="10" cy="10" r="10" fill="#222222" fill-opacity="0.6"/>
<path d="M13.4286 12.7737C13.3448 12.7737 13.2663 12.7475 13.1929 12.6951C13.0201 12.5642 12.9834 12.318 13.1144 12.1451C13.9367 11.0504 13.9367 9.52084 13.1144 8.42608C12.9834 8.25322 13.0201 8.00703 13.1929 7.87608C13.3658 7.74513 13.612 7.78179 13.7429 7.95465C14.7696 9.32703 14.7696 11.2442 13.7429 12.6166C13.6644 12.7213 13.5491 12.7737 13.4286 12.7737Z" fill="white"/>
<path d="M14.3871 14.0832C14.3033 14.0832 14.2248 14.057 14.1514 14.0046C13.9786 13.8737 13.9419 13.6275 14.0729 13.4546C15.4714 11.5898 15.4714 8.98127 14.0729 7.11651C13.9419 6.94365 13.9786 6.69746 14.1514 6.56651C14.3243 6.43555 14.5705 6.47222 14.7014 6.64508C16.3095 8.78746 16.3095 11.7837 14.7014 13.926C14.6281 14.0308 14.5076 14.0832 14.3871 14.0832Z" fill="white"/>
<path d="M11.3438 5.97976C10.7572 5.655 10.0081 5.73881 9.24336 6.21548L7.71383 7.17405C7.60907 7.23691 7.48859 7.27357 7.36812 7.27357H6.88098H6.61907C5.35145 7.27357 4.65479 7.97024 4.65479 9.23786V11.3331C4.65479 12.6007 5.35145 13.2974 6.61907 13.2974H6.88098H7.36812C7.48859 13.2974 7.60907 13.334 7.71383 13.3969L9.24336 14.3555C9.70431 14.6436 10.1548 14.785 10.5738 14.785C10.8462 14.785 11.1081 14.7221 11.3438 14.5912C11.9253 14.2664 12.25 13.5907 12.25 12.6898V7.88119C12.25 6.98024 11.9253 6.30452 11.3438 5.97976Z" fill="white"/>
</svg>
