<svg width="25" height="25" viewBox="0 0 25 25" fill="none" xmlns="http://www.w3.org/2000/svg">
<circle cx="12.5" cy="12.5" r="12.5" fill="#222222" fill-opacity="0.6"/>
<path d="M16.7857 15.9675C16.6809 15.9675 16.5827 15.9347 16.491 15.8693C16.275 15.7056 16.2291 15.3978 16.3928 15.1818C17.4208 13.8133 17.4208 11.9014 16.3928 10.533C16.2291 10.3169 16.275 10.0092 16.491 9.84546C16.7071 9.68177 17.0149 9.72761 17.1785 9.94368C18.4619 11.6592 18.4619 14.0556 17.1785 15.7711C17.0803 15.902 16.9363 15.9675 16.7857 15.9675Z" fill="white"/>
<path d="M17.9839 17.6041C17.8792 17.6041 17.7809 17.5714 17.6893 17.5059C17.4732 17.3422 17.4274 17.0344 17.5911 16.8184C19.3393 14.4874 19.3393 11.2267 17.5911 8.89576C17.4274 8.67968 17.4732 8.37195 17.6893 8.20826C17.9054 8.04457 18.2131 8.0904 18.3768 8.30647C20.3869 10.9844 20.3869 14.7297 18.3768 17.4077C18.2851 17.5386 18.1345 17.6041 17.9839 17.6041Z" fill="white"/>
<path d="M14.1797 7.47519C13.4463 7.06924 12.51 7.174 11.5541 7.76983L9.64217 8.96805C9.51122 9.04662 9.36062 9.09245 9.21003 9.09245H8.6011H8.27372C6.68919 9.09245 5.81836 9.96329 5.81836 11.5478V14.1669C5.81836 15.7514 6.68919 16.6222 8.27372 16.6222H8.6011H9.21003C9.36062 16.6222 9.51122 16.668 9.64217 16.7466L11.5541 17.9448C12.1303 18.305 12.6934 18.4817 13.2172 18.4817C13.5576 18.4817 13.885 18.4032 14.1797 18.2395C14.9065 17.8335 15.3124 16.9889 15.3124 15.8627V9.85198C15.3124 8.72579 14.9065 7.88114 14.1797 7.47519Z" fill="white"/>
</svg>
