<svg width="24" height="24" viewBox="0 0 24 24" fill="none" xmlns="http://www.w3.org/2000/svg">
<rect width="24" height="24" rx="12" fill="#2771FF"/>
<path d="M16.9621 7.04056C15.5924 5.67085 14.2509 5.63555 12.8459 7.04056L11.9916 7.89486C11.921 7.96547 11.8927 8.07843 11.921 8.17728C12.4576 10.0483 13.9544 11.5451 15.8254 12.0816C15.8536 12.0887 15.8818 12.0958 15.9101 12.0958C15.9877 12.0958 16.0583 12.0675 16.1148 12.011L16.9621 11.1567C17.661 10.4648 17.9999 9.7941 17.9999 9.1163C18.007 8.41733 17.6681 7.73954 16.9621 7.04056Z" fill="white"/>
<path d="M14.5544 12.7245C14.3497 12.6257 14.152 12.5268 13.9614 12.4139C13.806 12.3221 13.6578 12.2233 13.5095 12.1173C13.3895 12.0397 13.2483 11.9267 13.1141 11.8138C13.1 11.8067 13.0506 11.7643 12.9941 11.7078C12.7611 11.5102 12.4999 11.256 12.2669 10.9736C12.2457 10.9595 12.2104 10.91 12.161 10.8465C12.0904 10.7618 11.9704 10.6206 11.8645 10.4582C11.7797 10.3523 11.6809 10.1969 11.5891 10.0416C11.4761 9.85098 11.3773 9.66035 11.2784 9.46266C11.1488 9.18495 10.7843 9.10245 10.5676 9.31915L6.59743 13.2894C6.50565 13.3812 6.42092 13.5577 6.39974 13.6777L6.01848 16.3818C5.94788 16.8619 6.08203 17.3138 6.37856 17.6174C6.63273 17.8645 6.98575 17.9986 7.36701 17.9986C7.45173 17.9986 7.53646 17.9916 7.62118 17.9774L10.3324 17.5962C10.4594 17.575 10.636 17.4903 10.7207 17.3985L14.6974 13.4217C14.9098 13.2094 14.83 12.844 14.5544 12.7245Z" fill="white"/>
</svg>
