<svg width="16" height="16" viewBox="0 0 16 16" fill="none" xmlns="http://www.w3.org/2000/svg">
<path d="M14.7341 8.06641C14.7341 11.7485 11.7492 14.7334 8.06715 14.7334C4.38506 14.7334 1.40015 11.7485 1.40015 8.06641C1.40015 4.38433 4.38506 1.39941 8.06715 1.39941C11.7492 1.39941 14.7341 4.38433 14.7341 8.06641Z" fill="#FF2727"/>
<path d="M8.31304 9.23145H7.69077L7.52202 5.65957H8.48179L8.31304 9.23145ZM7.47983 10.3635C7.47983 10.1713 7.52905 10.0365 7.62749 9.95918C7.72827 9.87949 7.85132 9.83965 7.99663 9.83965C8.1396 9.83965 8.26147 9.87949 8.36226 9.95918C8.46304 10.0365 8.51343 10.1713 8.51343 10.3635C8.51343 10.551 8.46304 10.6869 8.36226 10.7713C8.26147 10.8533 8.1396 10.8943 7.99663 10.8943C7.85132 10.8943 7.72827 10.8533 7.62749 10.7713C7.52905 10.6869 7.47983 10.551 7.47983 10.3635Z" fill="white"/>
</svg>
